<svg width="752.000000pt" height="759.000000pt" viewBox="0 0 752.000000 759.000000" xmlns="http://www.w3.org/2000/svg">
  <g transform="translate(0.000000,759.000000) scale(0.100000,-0.100000)" fill="#d5d5d5" stroke="none">
    <path d="M0 3795 c0 -3795 0 -3795 3760 -3795 3760 0 3760 0 3760 3795 0 3795
0 3795 -3760 3795 -3760 0 -3760 0 -3760 -3795z m6050 2439 c0 -11 -474 -565
-580 -678 -65 -69 -65 -69 -71 -1420 -5 -1351 -5 -1351 -31 -1456 -190 -763
-715 -1204 -1476 -1240 -197 -9 -2592 -33 -2599 -26 -13 13 853 337 874 327
68 -31 103 -10 103 62 0 26 1 27 59 27 58 0 58 0 65 -50 7 -50 7 -50 816 -50
808 0 808 0 932 35 543 156 936 621 968 1150 14 220 15 205 -20 205 -92 0
-134 -51 -143 -173 -32 -430 -415 -876 -872 -1015 -100 -31 -100 -31 -1447
-38 -1348 -7 -1348 -7 -1348 53 0 69 48 73 875 73 497 0 485 -1 485 51 0 70
105 59 114 -11 7 -50 7 -50 81 -50 75 0 75 0 75 34 0 58 7 66 61 66 49 0 49 0
49 -50 0 -51 0 -51 483 -48 571 4 617 13 850 170 353 237 487 545 487 1121 0
337 0 337 -74 337 -86 0 -86 2 -86 -380 0 -544 -286 -946 -759 -1066 -96 -25
-96 -25 -758 -18 -663 7 -663 7 -663 -14 0 -12 -2 -22 -5 -22 -10 0 -350 173
-417 211 -66 39 -66 39 -447 39 -381 0 -381 0 -381 75 0 75 0 75 824 75 812 0
825 0 922 -22 376 -84 777 7 995 225 225 225 269 402 269 1092 1 1062 49 1243
408 1534 83 68 83 68 307 -46 123 -62 232 -113 241 -113 24 0 15 51 -45 254
-56 189 -64 156 91 395 71 110 69 115 -44 107 -266 -19 -894 -199 -906 -259
-3 -15 74 -63 236 -147 116 -60 119 -57 -104 -90 -268 -40 -340 -69 -651 -266
-34 -21 -381 -250 -770 -507 -797 -528 -754 -491 -656 -553 80 -51 575 -382
1001 -670 435 -295 610 -408 634 -412 35 -6 17 24 -57 98 -138 136 -229 346
-279 639 -27 158 -56 141 236 141 251 0 251 0 245 -338 -8 -383 -7 -380 -104
-597 -199 -445 -917 -544 -1413 -194 -199 140 -339 338 -433 613 -56 161 -71
1230 -21 1452 156 696 643 1159 1374 1307 125 26 125 26 1279 36 635 6 1157
13 1159 16 7 7 62 6 62 -1z m-1649 -950 c-170 -210 -251 -486 -251 -855 0
-128 23 -119 -291 -119 -217 0 -217 0 -212 68 38 575 341 942 816 991 4 1 -24
-38 -62 -85z" />
    <path d="M4721 4277 c-13 -16 -28 -154 -36 -344 -7 -143 -7 -143 64 -143 71 0
71 0 71 151 0 226 -50 395 -99 336z" />
    <path d="M5026 3658 c-13 -18 -16 -55 -16 -195 0 -173 0 -173 45 -173 45 0 45
0 45 195 0 195 0 195 -29 195 -20 0 -35 -8 -45 -22z" />
    <path d="M3870 2406 c0 -42 14 -47 151 -48 123 -2 139 4 139 48 0 34 0 34
-145 34 -145 0 -145 0 -145 -34z" />
    <path d="M2500 2310 c0 -40 0 -40 109 -40 117 0 121 2 121 56 0 24 0 24 -115
24 -115 0 -115 0 -115 -40z" />
    <path d="M2838 2343 c-96 -4 -106 -13 -72 -61 15 -22 18 -22 265 -22 249 0
249 0 249 45 0 48 -55 52 -442 38z" />
    <path d="M2840 1560 c0 -50 0 -50 143 -49 194 2 202 4 202 54 0 40 0 40 -172
43 -173 2 -173 2 -173 -48z" />
  </g>
  <g transform="translate(0.000000,759.000000) scale(0.100000,-0.100000)" fill="#0f1110" stroke="none">
    <path d="M5978 6245 c-2 -3 -524 -10 -1159 -16 -1154 -10 -1154 -10 -1279 -36
-731 -148 -1218 -611 -1374 -1307 -50 -222 -35 -1312 21 -1472 94 -275 234
-473 433 -613 499 -352 1233 -253 1433 194 98 218 97 213 104 607 6 348 6 348
-255 348 -301 0 -276 16 -246 -161 50 -295 135 -491 278 -638 45 -46 76 -82
70 -80 -19 7 -263 167 -626 413 -426 288 -921 619 -1001 670 -34 21 -57 43
-55 51 2 11 1216 822 1481 989 312 198 383 227 657 267 217 31 227 40 119 97
-174 94 -260 145 -252 152 78 68 649 226 892 246 100 8 101 19 -14 -161 -52
-83 -95 -155 -95 -160 0 -6 22 -85 49 -177 28 -91 53 -182 57 -202 8 -46 17
-49 -258 91 -208 105 -208 105 -265 62 -387 -294 -442 -488 -443 -1564 0 -613
-26 -764 -169 -973 -206 -303 -637 -441 -1075 -344 -97 22 -110 22 -932 22
-834 0 -834 0 -834 -85 0 -85 0 -85 381 -85 381 0 381 0 447 -39 99 -58 409
-211 427 -211 9 0 15 9 15 22 0 21 0 21 663 14 662 -7 662 -7 758 18 473 121
759 522 759 1066 0 376 1 380 76 380 64 0 64 0 64 -327 0 -565 -136 -876 -487
-1111 -233 -157 -281 -166 -840 -170 -473 -3 -473 -3 -473 48 0 50 0 50 -59
50 -65 0 -71 -6 -71 -66 0 -66 -127 -51 -136 16 -9 70 -134 81 -134 11 0 -52
12 -51 -485 -51 -845 0 -875 -3 -875 -83 0 -70 0 -70 1358 -63 1357 7 1357 7
1457 38 457 139 840 585 872 1015 8 117 52 173 133 173 23 0 22 13 10 -185
-32 -529 -425 -994 -968 -1150 -124 -35 -124 -35 -922 -35 -799 0 -799 0 -806
50 -7 50 -7 50 -75 50 -69 0 -69 0 -69 -27 0 -73 -27 -90 -88 -59 -25 12 -826
-286 -917 -342 -16 -10 85 -11 490 -7 281 3 836 7 1235 10 1083 9 1148 13
1410 102 425 144 781 509 930 953 90 268 83 146 89 1656 6 1351 6 1351 71
1420 89 95 514 590 589 687 13 16 -74 28 -91 12z m-1188 -2086 c16 -58 20
-103 20 -216 0 -143 0 -143 -61 -143 -60 0 -60 0 -54 133 17 367 40 422 95
226z m300 -674 c0 -185 0 -185 -35 -185 -35 0 -35 0 -35 163 0 173 8 207 51
207 18 0 19 -8 19 -185z m-940 -1079 c0 -32 -24 -39 -130 -38 -117 2 -140 8
-140 38 0 24 0 24 135 24 135 0 135 0 135 -24z m-1430 -80 c0 -42 -9 -46 -111
-46 -99 0 -99 0 -99 30 0 30 0 30 105 30 84 0 105 -3 105 -14z m550 -21 c0
-45 -463 -57 -494 -13 -25 35 -21 37 72 41 358 13 422 9 422 -28z m-95 -740
c0 -38 -17 -42 -192 -44 -133 -1 -133 -1 -133 39 0 40 0 40 163 38 162 -3 162
-3 162 -33z" />
    <path d="M4406 5370 c-444 -93 -658 -324 -745 -805 -50 -277 -59 -265 197
-265 326 0 302 -9 302 119 0 367 81 645 248 850 72 89 97 122 91 120 -2 0 -44
-9 -93 -19z" />
  </g>
</svg>