<svg width="156.000000pt" height="217.000000pt" viewBox="0 0 156.000000 217.000000" xmlns="http://www.w3.org/2000/svg">
  <g transform="translate(0.000000,217.000000) scale(0.100000,-0.100000)" fill="#313131" stroke="none">
    <path d="M690 2159 c-78 -31 -83 -143 -9 -188 31 -19 31 -19 29 -201 -1 -146
-4 -187 -16 -205 -28 -43 6 -86 56 -70 27 9 37 51 16 74 -13 15 -16 46 -16
202 0 184 0 184 29 197 119 53 32 240 -89 191z m90 -49 c26 -26 25 -68 -2 -97
-28 -30 -63 -29 -93 2 -46 45 -19 115 45 115 17 0 39 -9 50 -20z" />
    <path d="M463 1958 c-53 -25 -51 -110 3 -139 25 -13 25 -14 24 -138 -2 -126
-2 -126 94 -307 96 -181 96 -181 96 -328 0 -80 -3 -146 -7 -146 -5 0 -56 16
-114 35 -105 35 -105 35 -182 125 -42 49 -72 92 -67 95 5 3 15 23 21 44 32
108 -104 184 -176 99 -57 -68 -13 -169 75 -172 42 -1 46 -4 123 -93 79 -92 79
-92 203 -133 124 -42 124 -42 124 -399 0 -399 2 -388 -72 -406 -61 -15 -22
-25 97 -25 119 0 157 10 98 25 -64 16 -63 11 -63 309 0 271 0 271 190 366 191
95 191 95 243 185 45 78 56 90 82 93 93 11 101 140 10 158 -62 12 -108 -64
-76 -124 7 -13 -4 -39 -41 -103 -50 -85 -50 -85 -224 -172 -96 -48 -176 -87
-179 -87 -3 0 -5 51 -5 114 0 114 0 114 168 336 167 222 167 222 213 224 102
4 144 116 68 180 -90 76 -209 -27 -155 -132 14 -27 12 -31 -137 -227 -152
-200 -152 -200 -157 -120 -5 79 -7 83 -113 281 -107 202 -107 202 -107 316 0
114 0 114 30 136 79 59 2 173 -87 130z m77 -47 c15 -29 13 -39 -15 -57 -42
-27 -88 29 -53 64 18 18 56 14 68 -7z m624 -362 c65 -51 1 -153 -73 -114 -48
24 -55 72 -16 110 30 30 54 31 89 4z m-886 -269 c44 -42 15 -120 -45 -120 -34
0 -73 36 -73 69 0 59 74 91 118 51z m1012 -125 c16 -20 5 -62 -19 -70 -43 -13
-80 42 -49 73 17 17 53 15 68 -3z" />
    <path d="M1012 1963 c-41 -16 -48 -88 -11 -128 55 -60 -100 -389 -193 -409
-49 -10 -51 -80 -3 -92 33 -8 57 14 60 53 1 18 28 64 72 123 66 88 113 211
113 295 0 3 7 5 15 5 9 0 27 11 40 25 63 62 -9 162 -93 128z m69 -42 c30 -24
14 -71 -24 -71 -45 0 -66 58 -29 79 23 14 26 14 53 -8z" />
    <path d="M1370 1748 c-24 -26 -26 -70 -4 -108 37 -61 -42 -218 -160 -318 -63
-53 -128 -121 -178 -186 -47 -60 -93 -109 -116 -122 -39 -22 -52 -54 -32 -80
29 -33 82 -8 84 41 2 44 158 232 270 325 102 85 102 85 135 180 39 112 55 140
80 140 51 0 72 89 31 130 -27 27 -83 27 -110 -2z m88 -20 c29 -29 7 -78 -35
-78 -21 0 -43 25 -43 49 0 31 55 52 78 29z" />
    <path d="M104 1711 c-95 -58 -41 -203 69 -188 43 6 43 6 109 -72 56 -66 77
-83 132 -107 77 -33 112 -100 99 -190 -5 -39 -3 -44 19 -55 58 -26 98 51 44
86 -16 11 -29 36 -41 78 -22 78 -22 79 -96 108 -75 29 -206 168 -188 200 50
94 -57 195 -147 140z m122 -68 c9 -35 -14 -75 -49 -87 -59 -21 -114 67 -72
114 35 39 109 22 121 -27z" />
  </g>
</svg>