<?xml version="1.0" encoding="UTF-8" standalone="no"?>
<svg
   xmlns:dc="http://purl.org/dc/elements/1.1/"
   xmlns:cc="http://creativecommons.org/ns#"
   xmlns:rdf="http://www.w3.org/1999/02/22-rdf-syntax-ns#"
   xmlns:svg="http://www.w3.org/2000/svg"
   xmlns="http://www.w3.org/2000/svg"
   viewBox="0 0 2800 2800"
   height="2800"
   width="2800"
   xml:space="preserve"
   id="svg2"
   version="1.1"><metadata
     id="metadata8"><rdf:RDF><cc:Work
         rdf:about=""><dc:format>image/svg+xml</dc:format><dc:type
           rdf:resource="http://purl.org/dc/dcmitype/StillImage" /></cc:Work></rdf:RDF></metadata><defs
     id="defs6" /><g
     transform="matrix(1.3333333,0,0,-1.3333333,0,2800)"
     id="g10"><g
       transform="scale(0.1)"
       id="g12"><g
         transform="scale(1.28834)"
         id="g14"><path
           id="path16"
           style="fill:#ffffff;fill-opacity:0;fill-rule:nonzero;stroke:none"
           d="M 0,0 H 16300 V 16300 H 0 Z" /></g><g
         transform="scale(1.11)"
         id="g18"><path
           id="path20"
           style="fill:#000000;fill-opacity:1;fill-rule:nonzero;stroke:none"
           d="m 7965.71,5149.31 c -179.53,81.82 -316.12,208.2 -396.95,367.3 l -71.2,140.06 -187.38,-7.67 c -321.59,-13.13 -585.62,147.35 -730.82,444.08 -81.73,166.98 -82.74,167.75 -224.6,168.42 -372.47,1.8 -717.91,321.86 -763.58,707.46 -16.33,137.77 -25.69,151.88 -113.67,170.85 -254.01,54.8 -491.1,262.53 -587.41,514.67 -77.85,203.87 -55.18,497.69 50.74,657.73 l 79.7,120.46 -222.15,275.34 c -322.22,399.35 -297.45,390.77 -431.98,150.2 -94.77,-169.48 -137.42,-214.49 -250.84,-264.67 -91.78,-40.58 -166.95,-53.81 -228.82,-40.23 -98.71,21.68 -1014.67,563.98 -1124.26,665.61 -36.21,33.57 -82.55,120.78 -103,193.77 -32.48,115.99 -29.6,149.63 22.73,266.99 32.98,73.87 500.88,916.42 1039.87,1872.42 538.99,956 1026.25,1824.1 1082.84,1929.3 56.59,105.2 138.23,219 181.41,253 101.49,79.9 261.97,109.1 377.5,68.8 153.26,-53.4 1016.16,-594.7 1092.31,-685.2 115.67,-137.5 125.94,-279.4 34.59,-478.9 -43.18,-94.3 -78.55,-175.5 -78.55,-180.3 0,-22.8 489.69,-288.5 584.5,-317.1 59.22,-17.9 259.47,-55.7 444.99,-84 l 337.35,-51.5 46.34,72.9 c 226.39,355.8 733.71,496 2047.65,565.6 481.68,25.6 915.48,-21 1594.48,-171.3 301.7,-66.8 614.5,-121.5 695.2,-121.5 120.2,0 321.7,43.3 365.9,78.6 5.5,4.4 -25.7,74.9 -69.2,156.7 -100.4,188.7 -103.9,365.3 -10,503.1 46,67.4 239.6,204.7 576.8,409 577.2,349.6 683.9,382.1 860.6,262.1 118.8,-80.7 133.5,-104.9 953.5,-1563.3 309.2,-549.9 754,-1339.4 988.6,-1754.6 234.5,-415.1 435,-797.99 445.6,-850.88 25.5,-127.68 -30.9,-288.99 -134.2,-383.91 -113.9,-104.62 -987.2,-628.3 -1086.3,-651.46 -177,-41.31 -379.3,77.07 -491.4,287.69 -115.3,216.4 -97.7,218.08 -358.1,-34.34 -132,-127.99 -298.4,-271.08 -369.7,-317.96 -128,-84.04 -129.2,-86.5 -84.6,-172.58 24.8,-48.04 44.8,-167.62 44.4,-265.73 -1.5,-411.07 -284.8,-727.48 -688.6,-769.14 l -158.4,-16.37 -53.9,-182.68 c -71.2,-241.55 -256.1,-432.14 -485.5,-500.24 -89.2,-26.5 -193.7,-48.18 -232.4,-48.18 -56.5,0 -76.7,-25.23 -104.5,-130.73 -51.6,-195.46 -172.7,-384.36 -300.4,-468.51 -70.1,-46.2 -202,-89.1 -344.3,-111.98 -225.6,-36.24 -234.4,-41.06 -393.8,-215.47 -405.8,-444.19 -924.5,-498.46 -1875.99,-196.3 l -235.75,74.85 -139.81,-151.32 c -76.93,-83.2 -191.06,-172.69 -253.66,-198.83 -152.45,-63.74 -410.4,-59.2 -561.88,9.85 z m 517.5,503.98 c 279.84,344.14 451.54,615.64 451.54,713.93 0,146.22 -116.8,300.71 -266.96,353 -112.82,39.34 -134.82,38.68 -202.85,-5.87 -81.85,-53.67 -492.01,-585.66 -550.57,-714.11 -87.65,-192.46 117.69,-477.72 343.89,-477.72 102.41,0 133.2,17.91 224.95,130.77 z m 1907.29,25.26 c 64.6,17.95 173.6,83.34 242.2,145.27 l 124.7,112.66 -679.4,328.75 c -600.03,290.37 -681.79,338.65 -700.64,413.82 -27.38,109.09 38.84,229.58 145.65,265.06 68.52,22.77 191.26,-27.24 815.29,-332.07 687.8,-336.07 746.5,-359.02 923.3,-360.81 235.1,-2.4 333.1,55.31 384.3,226.17 30.9,103.05 29.8,131.48 -6.4,165.05 -24,22.35 -389.8,238.38 -812.8,480.11 -423,241.73 -793.3,460.35 -822.9,485.82 -84.96,73.1 -69.72,235.19 29.4,313.17 49.9,39.27 108.7,59.12 146.8,49.55 34.9,-8.76 448.3,-237.96 918.6,-509.32 747.8,-431.41 872,-493.39 989.5,-493.39 73.9,0 169.8,13.52 213.2,29.98 109.7,41.74 205.3,207.17 195,337.6 -8.3,104.34 -23.6,115.18 -934.3,661.42 -509.3,305.39 -948.8,574.29 -976.8,597.52 -78.1,64.99 -67.3,265.73 17.6,325.2 37.6,26.33 92.6,47.9 122.2,47.9 29.6,0 527,-283.83 1105.2,-630.67 947.7,-568.41 1064.9,-630.63 1188.3,-630.63 114.7,0 153.9,16.96 241.6,104.59 82.9,82.98 104.5,129.25 104.5,223.89 0,200.59 -84,287.55 -830.6,859.16 -985.7,754.75 -1711.8,1227.55 -2729.42,1777.45 l -437.65,236.5 -216.07,-65.6 c -118.84,-36.2 -216.11,-77.1 -216.11,-90.9 0,-59.3 -483.84,-532.7 -672.86,-658.3 -280.23,-186.35 -612.3,-294.9 -901.96,-294.9 -395.38,0 -566.48,156.81 -558.98,512.4 5.11,242.6 79.57,404.9 417.44,909.8 l 262.04,391.6 -111.14,19.1 c -542.4,93.1 -642.06,127.6 -996.02,344.3 -97.55,59.7 -182.75,103 -189.36,96.2 -28.27,-28.9 -1463.69,-2587 -1463.69,-2608.32 0,-12.95 36.07,-57.08 80.14,-98.08 44.09,-41.04 171.06,-188.98 282.16,-328.8 l 202,-254.18 64.37,60.46 c 182.85,171.76 521.39,205.09 779.02,76.72 146.65,-73.1 315.11,-227.27 355.86,-325.67 13.41,-32.38 24.39,-30.02 50.33,10.77 161.25,253.83 346.67,363.11 616.17,363.11 225.85,0 352.01,-48.95 522.06,-202.57 157.73,-142.52 244.93,-307.15 268.61,-507.1 14.86,-125.25 28.72,-151.72 79.53,-151.72 109.84,0 334.72,-134.54 456.89,-273.36 127.47,-144.81 211.29,-368.14 211.29,-562.82 0,-85.26 12.99,-117.47 47.37,-117.47 78.9,0 277.77,-114.51 384.89,-221.63 255.91,-255.91 319.47,-676.91 142.56,-944.26 l -84.11,-127.11 69.97,-26.46 c 77.42,-29.32 548.91,-146.68 669.86,-166.77 152.31,-25.31 356.01,-20.17 471.31,11.81 z m -2531.48,997.62 c 385.03,526.46 404.17,559.57 389.04,672.5 -28.71,214.53 -268.79,385.17 -451.54,320.98 -74.64,-26.25 -814.36,-997.28 -871.27,-1143.75 -58.95,-151.75 90.9,-395.24 275.09,-446.9 164.41,-46.14 235.11,17.95 658.68,597.17 z m -1350.12,53.8 c 25.8,21.15 217.72,273.79 426.48,561.45 208.76,287.61 425.61,577.38 481.91,643.85 121.31,143.24 134.15,281.86 40.26,433.82 -83.92,135.8 -278.96,215.99 -392,161.17 -46.23,-22.45 -287.86,-320.49 -566.92,-699.36 -522.07,-708.75 -547.65,-764.64 -436.42,-952.91 95.87,-162.27 333.26,-240.96 446.69,-148.02 z m -736.42,861.39 c 104.17,81.99 393.62,526.64 393.52,604.44 -0.15,100.72 -96.61,261.3 -196.06,326.47 -46.1,30.19 -122.32,46 -193.73,40.12 -107.68,-8.87 -134.08,-31.43 -309.96,-264.89 -162.62,-215.83 -192.29,-274.52 -192.29,-380.49 0,-104.48 19.81,-145.06 119.44,-244.68 92.27,-92.27 143.41,-119.44 224.84,-119.44 58,0 127.4,17.31 154.24,38.47 z m 7799.42,1245.88 c 68.3,46.56 245.7,200.06 394.2,341.18 269.6,256.37 269.8,256.65 221.9,338.4 -26.4,45.01 -355.6,628.58 -731.5,1296.98 -376,668.3 -685.8,1217.8 -688.5,1221.1 -2.7,3.3 -107.4,-21 -232.7,-53.8 -288.3,-75.7 -498.5,-74.8 -847.2,3.9 -1076.5,242.8 -1282.7,265 -2008.87,215.8 -587.1,-39.7 -1124.09,-120.2 -1300.78,-194.8 -89.92,-38 -187.37,-156.8 -527.17,-642.5 -513.48,-734 -597.52,-871.4 -625.6,-1023.3 l -22.17,-119.8 219.87,15.7 c 389.12,27.9 782.7,284.2 1130.74,736.5 136.05,176.9 139.6,179 481.87,288.2 l 344.84,109.9 338.41,-170 c 1059.46,-532.4 2255.86,-1308.08 3322.36,-2154.25 203,-161.08 377.5,-293.08 387.6,-293.32 10.2,-0.25 74.4,37.58 142.7,84.11 z m -9502.68,369.15 c 66.41,114.23 252.43,442.99 413.33,730.65 160.89,287.66 591.66,1054.76 957.27,1704.86 365.6,650 664.76,1190.1 664.76,1200.2 0,10.1 -192.24,137.6 -427.19,283.4 l -427.15,265.1 -747.88,-1326.8 C 3353.46,10025.4 3089.77,9552.04 3090.05,9528.26 c 0.22,-21.86 795.47,-522.99 836.68,-527.25 11.93,-1.22 76.05,91.18 142.49,205.38 z m 11358.08,46.17 c 234.4,139.57 423.3,261.58 419.9,271.12 -33.4,93.99 -2166.1,3843.42 -2186.2,3843.42 -21,0 -585.5,-338 -814.5,-487.7 -40.5,-26.5 50.5,-193.4 1817,-3334.6 168.9,-300.33 314,-546.04 322.4,-546.04 8.5,0 207.1,114.2 441.4,253.8 z" /></g></g></g></svg>