<?xml version="1.0" standalone="no"?>
<!DOCTYPE svg PUBLIC "-//W3C//DTD SVG 20010904//EN"
 "http://www.w3.org/TR/2001/REC-SVG-20010904/DTD/svg10.dtd">
<svg version="1.0" xmlns="http://www.w3.org/2000/svg"
 width="500.000000pt" height="500.000000pt" viewBox="0 0 500.000000 500.000000"
 preserveAspectRatio="xMidYMid meet">

<g transform="translate(0.000000,500.000000) scale(0.100000,-0.100000)"
fill="#000000" stroke="none">
<path d="M1393 4945 l-73 -34 46 -98 c25 -54 76 -165 114 -248 74 -163 189
-407 194 -412 1 -2 35 12 75 29 61 27 71 35 67 53 -6 24 -334 727 -344 737 -4
4 -40 -9 -79 -27z"/>
<path d="M3511 4942 c-50 -100 -331 -709 -331 -718 0 -5 30 -23 67 -39 37 -17
70 -31 73 -33 8 -3 22 27 202 418 83 179 152 328 154 332 5 7 -70 49 -122 68
-21 8 -26 6 -43 -28z"/>
<path d="M2420 4865 l0 -86 81 3 81 3 0 80 0 80 -81 3 -81 3 0 -86z"/>
<path d="M297 4512 l-57 -58 60 -59 60 -59 55 54 c30 30 55 59 55 65 0 10
-101 115 -111 115 -2 0 -30 -26 -62 -58z"/>
<path d="M4582 4517 c-29 -29 -52 -57 -52 -63 0 -5 25 -34 55 -64 l55 -54 60
59 60 59 -57 58 c-32 32 -60 58 -63 58 -3 0 -29 -24 -58 -53z"/>
<path d="M2420 4438 c-1 -2 -2 -40 -3 -86 l-2 -82 85 0 85 0 -2 82 -1 83 -81
3 c-45 2 -81 2 -81 0z"/>
<path d="M657 4152 l-57 -58 60 -59 60 -59 60 59 60 59 -57 58 c-32 32 -60 58
-63 58 -3 0 -31 -26 -63 -58z"/>
<path d="M4222 4157 c-29 -29 -52 -57 -52 -63 0 -5 25 -34 55 -64 l55 -54 60
59 60 59 -57 58 c-32 32 -60 58 -63 58 -3 0 -29 -24 -58 -53z"/>
<path d="M2340 4090 c-364 -46 -671 -193 -919 -441 -630 -630 -589 -1673 90
-2245 139 -117 226 -244 280 -409 23 -68 23 -82 26 -480 2 -226 5 -420 8 -432
3 -12 15 -32 27 -43 21 -20 33 -20 647 -20 476 1 630 4 642 13 37 29 39 47 39
442 0 314 3 400 16 463 33 159 112 296 238 412 146 136 250 245 309 327 208
291 311 665 279 1018 -31 339 -150 622 -370 879 -219 254 -526 430 -867 496
-124 24 -336 33 -445 20z m417 -184 c638 -126 1103 -689 1103 -1336 0 -408
-191 -807 -510 -1065 -76 -62 -178 -186 -224 -275 -45 -84 -93 -230 -102 -303
l-7 -57 -517 0 -517 0 -7 58 c-8 75 -63 231 -109 314 -53 96 -135 194 -218
263 -268 224 -439 522 -495 865 -19 116 -14 357 11 470 92 417 365 769 740
950 147 71 287 113 455 134 71 9 317 -3 397 -18z m253 -3291 l0 -85 -510 0
-510 0 0 85 0 85 510 0 510 0 0 -85z m0 -340 l0 -85 -510 0 -510 0 0 85 0 85
510 0 510 0 0 -85z"/>
<path d="M2192 3690 c-73 -26 -111 -51 -169 -113 -54 -56 -72 -87 -93 -152 -9
-27 -32 -57 -72 -94 -56 -51 -98 -115 -111 -172 -5 -18 -26 -38 -67 -63 -106
-66 -179 -181 -196 -308 -6 -44 -14 -60 -49 -94 -91 -92 -140 -242 -117 -364
30 -163 146 -295 298 -340 37 -11 44 -18 64 -66 41 -101 152 -185 261 -200 45
-6 47 -8 53 -46 9 -56 39 -110 82 -148 48 -42 90 -59 163 -66 73 -8 126 1 152
27 19 19 19 43 19 1097 l0 1079 -23 21 c-30 28 -120 29 -195 2z m58 -591 c0
-230 -4 -419 -8 -419 -14 0 -60 54 -71 83 -6 16 -11 41 -11 56 0 41 -34 79
-78 86 -73 12 -83 16 -121 51 -91 82 -69 219 45 274 48 24 68 54 79 121 3 20
18 56 34 79 30 44 107 104 122 94 5 -3 9 -194 9 -425z m-462 -198 c31 -54 105
-118 162 -138 42 -15 48 -22 63 -64 24 -68 96 -142 173 -180 l64 -32 -2 -425
c-2 -329 -6 -426 -15 -429 -7 -3 -26 9 -43 25 -28 28 -30 36 -30 102 0 122
-21 142 -140 134 -78 -6 -88 -4 -120 18 -19 13 -43 39 -53 58 l-19 35 59 60
c49 50 63 72 82 133 39 121 15 194 -64 194 -51 0 -75 -26 -84 -94 -8 -62 -35
-111 -75 -138 -22 -14 -35 -16 -68 -8 -60 13 -91 32 -136 83 -98 112 -76 282
49 372 53 38 56 44 62 143 2 36 12 80 20 97 22 42 66 93 81 93 7 0 22 -18 34
-39z"/>
<path d="M2613 3688 l-23 -24 0 -1077 c0 -1053 0 -1077 19 -1096 26 -26 79
-35 152 -27 73 7 115 24 163 66 43 38 73 92 82 148 6 38 8 40 53 46 108 15
220 101 262 201 19 47 26 54 63 65 200 59 335 273 298 472 -15 83 -63 177
-116 230 -36 36 -44 52 -50 96 -17 127 -90 242 -196 308 -41 25 -62 45 -67 63
-16 68 -68 143 -134 194 -24 18 -40 41 -48 69 -19 66 -54 118 -115 176 -74 70
-149 104 -246 109 -69 5 -77 3 -97 -19z m236 -219 c41 -40 59 -77 71 -141 12
-62 19 -71 76 -98 112 -55 134 -193 43 -274 -38 -35 -48 -39 -121 -51 -44 -7
-78 -45 -78 -86 0 -15 -5 -40 -11 -56 -11 -29 -57 -83 -71 -83 -9 0 -11 834
-2 843 10 9 58 -18 93 -54z m448 -577 c38 -50 53 -97 53 -169 0 -69 4 -77 60
-117 124 -89 146 -259 48 -371 -45 -51 -76 -70 -136 -83 -33 -8 -46 -6 -68 8
-40 27 -67 76 -75 138 -9 68 -33 94 -84 94 -59 0 -80 -28 -79 -105 1 -86 40
-172 107 -234 l50 -47 -19 -35 c-10 -19 -35 -46 -54 -59 -32 -22 -41 -24 -121
-18 -83 6 -87 6 -112 -20 -25 -24 -27 -33 -27 -106 0 -75 -2 -81 -30 -110 -17
-16 -36 -28 -43 -25 -9 3 -13 100 -15 429 l-2 425 64 32 c77 38 149 112 173
180 15 43 21 49 64 64 55 20 137 90 164 141 11 21 26 35 34 34 8 -2 30 -22 48
-46z"/>
<path d="M1017 3792 l-57 -58 60 -59 60 -59 60 59 60 59 -57 58 c-32 32 -60
58 -63 58 -3 0 -31 -26 -63 -58z"/>
<path d="M3857 3792 l-57 -58 60 -59 60 -59 60 59 60 59 -57 58 c-32 32 -60
58 -63 58 -3 0 -31 -26 -63 -58z"/>
<path d="M35 3418 c-18 -40 -30 -76 -26 -79 3 -3 103 -49 221 -102 118 -52
285 -127 370 -165 l155 -70 32 67 c18 36 32 71 33 77 0 6 -51 34 -112 62 -62
28 -229 102 -370 166 -141 64 -260 116 -263 116 -3 0 -21 -33 -40 -72z"/>
<path d="M4548 3323 c-203 -92 -368 -171 -368 -177 1 -6 15 -41 33 -77 l32
-67 375 168 c216 97 374 173 372 180 -7 29 -62 140 -69 140 -4 -1 -173 -76
-375 -167z"/>
<path d="M127 2394 c-4 -4 -7 -43 -7 -86 l0 -78 85 0 86 0 -3 83 -3 82 -75 3
c-42 1 -79 0 -83 -4z"/>
<path d="M637 2393 c-4 -3 -7 -42 -7 -85 l0 -78 85 0 85 0 0 85 0 85 -78 0
c-43 0 -82 -3 -85 -7z"/>
<path d="M4200 2315 l0 -85 85 0 86 0 -3 83 -3 82 -82 3 -83 3 0 -86z"/>
<path d="M4717 2394 c-4 -4 -7 -43 -7 -86 l0 -78 85 0 86 0 -3 83 -3 82 -75 3
c-42 1 -79 0 -83 -4z"/>
<path d="M610 1602 c-129 -59 -297 -134 -372 -167 -76 -33 -138 -65 -138 -71
0 -16 59 -144 66 -144 4 0 97 41 208 91 110 51 278 125 371 166 94 41 171 76
173 77 2 3 -67 156 -71 155 -1 0 -108 -49 -237 -107z"/>
<path d="M4115 1633 c-19 -42 -34 -77 -33 -78 2 -1 57 -26 123 -55 66 -29 234
-104 373 -166 139 -63 254 -114 256 -114 6 0 66 131 66 144 0 6 -127 67 -282
136 -154 69 -323 144 -374 167 l-94 42 -35 -76z"/>
<path d="M1090 1025 l-54 -55 59 -60 60 -60 60 60 60 60 -55 55 c-30 30 -59
55 -65 55 -6 0 -35 -25 -65 -55z"/>
<path d="M3780 1025 l-54 -55 59 -60 60 -60 60 60 60 60 -55 55 c-30 30 -59
55 -65 55 -6 0 -35 -25 -65 -55z"/>
<path d="M730 665 l-54 -55 59 -60 60 -60 60 60 60 60 -55 55 c-30 30 -59 55
-65 55 -6 0 -35 -25 -65 -55z"/>
<path d="M4140 665 l-54 -55 59 -60 60 -60 60 60 60 60 -55 55 c-30 30 -59 55
-65 55 -6 0 -35 -25 -65 -55z"/>
<path d="M370 305 l-54 -55 59 -60 60 -60 60 60 60 60 -55 55 c-30 30 -59 55
-65 55 -6 0 -35 -25 -65 -55z"/>
<path d="M4500 305 l-54 -55 59 -60 60 -60 60 60 60 60 -55 55 c-30 30 -59 55
-65 55 -6 0 -35 -25 -65 -55z"/>
</g>
</svg>
