<?xml version="1.0" standalone="no"?>
<!DOCTYPE svg PUBLIC "-//W3C//DTD SVG 20010904//EN"
 "http://www.w3.org/TR/2001/REC-SVG-20010904/DTD/svg10.dtd">
<svg version="1.0" xmlns="http://www.w3.org/2000/svg"
 width="500.000000pt" height="500.000000pt" viewBox="0 0 500.000000 500.000000"
 preserveAspectRatio="xMidYMid meet">

<g transform="translate(0.000000,500.000000) scale(0.100000,-0.100000)"
fill="#000000" stroke="none">
<path d="M2655 4691 c-16 -10 -132 -122 -257 -248 l-228 -229 0 -44 0 -45 248
-247 c233 -234 250 -248 284 -248 55 0 93 36 93 89 0 40 -6 47 -155 197 l-155
156 105 -5 c445 -23 872 -255 1149 -624 63 -84 161 -245 161 -266 0 -3 -33
-23 -74 -46 -190 -104 -301 -295 -299 -516 1 -173 67 -325 190 -434 57 -51
157 -109 226 -131 46 -15 46 -17 -15 -160 -93 -220 -244 -427 -423 -578 -261
-220 -536 -337 -874 -371 -63 -7 -405 -11 -877 -11 l-774 0 0 161 0 161 -29
29 -29 29 -412 0 -412 0 -29 -29 -29 -29 0 -412 0 -412 29 -29 29 -29 412 0
412 0 29 29 29 29 0 156 0 155 843 4 c803 4 847 5 952 25 292 56 532 160 762
330 272 202 495 509 603 828 l34 101 60 12 c34 7 95 29 136 48 148 71 297 257
316 396 6 42 4 49 -24 76 -60 61 -136 33 -167 -61 -37 -115 -109 -197 -217
-248 -241 -114 -522 38 -569 308 -29 164 76 354 238 430 52 24 70 27 163 27
98 0 110 -2 170 -32 36 -17 78 -46 95 -63 l29 -30 -64 -66 c-36 -36 -86 -83
-111 -104 l-46 -39 -36 49 c-39 52 -69 67 -112 56 -42 -11 -65 -41 -65 -87 0
-34 12 -58 71 -144 56 -84 77 -106 105 -115 29 -10 40 -9 67 7 18 10 167 153
330 319 288 292 297 302 297 340 -1 42 -13 64 -47 82 -49 26 -72 16 -164 -74
l-88 -86 -48 40 c-95 78 -209 125 -338 138 l-64 7 -40 81 c-93 187 -249 391
-400 523 -296 259 -678 418 -1054 440 l-108 6 150 151 c91 93 152 162 156 179
10 37 -12 85 -46 102 -37 20 -58 19 -94 -4z m-1865 -3851 l0 -280 -282 2 -283
3 -3 265 c-1 146 0 270 3 277 3 10 68 13 285 13 l280 0 0 -280z"/>
<path d="M1735 4096 c-186 -87 -367 -218 -520 -378 -131 -137 -220 -262 -305
-433 -109 -218 -159 -397 -181 -646 -42 -476 137 -985 472 -1341 60 -62 94
-77 140 -58 65 28 75 112 18 166 -17 16 -58 63 -92 104 -333 411 -436 938
-286 1455 38 128 140 333 226 455 139 194 361 383 577 491 127 64 136 72 136
123 -1 44 -13 66 -47 84 -33 18 -62 14 -138 -22z"/>
<path d="M4385 1345 c-19 -18 -25 -35 -25 -66 0 -41 4 -47 145 -189 80 -80
145 -149 145 -153 0 -4 -209 -7 -464 -7 l-463 0 -27 -25 c-35 -33 -36 -92 -2
-132 l24 -28 478 -3 478 -3 -157 -157 c-147 -148 -157 -161 -157 -196 0 -50
44 -96 92 -96 29 0 57 24 285 253 271 270 272 272 239 335 -8 15 -120 132
-248 260 -232 230 -234 232 -276 232 -32 0 -49 -6 -67 -25z"/>
</g>
</svg>
